<svg width="16" height="16" viewBox="0 0 16 16" fill="none" xmlns="http://www.w3.org/2000/svg">
<path d="M9.33331 9.30883H10.6666V5.30884H6.66664V6.64217H8.39051L4.83746 10.1952L5.78027 11.138L9.33331 7.58496V9.30883Z" fill="#E5E5E5"/>
<path fill-rule="evenodd" clip-rule="evenodd" d="M15.3334 12.6667C15.3334 14.1395 14.1394 15.3334 12.6667 15.3334H3.33335C1.86059 15.3334 0.666687 14.1395 0.666687 12.6667V3.33341C0.666687 1.86065 1.86059 0.666748 3.33335 0.666748H12.6667C14.1394 0.666748 15.3334 1.86065 15.3334 3.33341V12.6667ZM12.6667 14.0001H3.33335C2.59697 14.0001 2.00002 13.4031 2.00002 12.6667V3.33341C2.00002 2.59703 2.59697 2.00008 3.33335 2.00008H12.6667C13.4031 2.00008 14 2.59703 14 3.33341V12.6667C14 13.4031 13.4031 14.0001 12.6667 14.0001Z" fill="#E5E5E5"/>
</svg>
