<svg width="12" height="13" viewBox="0 0 12 13" fill="none" xmlns="http://www.w3.org/2000/svg">
<path d="M4.61581 11.1057C4.6158 11.0263 4.59831 10.9478 4.5646 10.8759C4.53088 10.804 4.48176 10.7403 4.42071 10.6895C4.35966 10.6387 4.28818 10.6019 4.21133 10.5818C4.13448 10.5616 4.05415 10.5587 3.97602 10.573C3.26693 10.7032 2.37165 10.7227 2.13361 10.0541C1.92605 9.5363 1.58223 9.08428 1.13862 8.746C1.10697 8.72878 1.0768 8.70897 1.04843 8.68675C1.00961 8.58434 0.940645 8.4961 0.850648 8.43368C0.76065 8.37125 0.653843 8.33758 0.544318 8.3371H0.541674C0.398457 8.33705 0.261052 8.39374 0.159535 8.49476C0.0580172 8.59578 0.000656587 8.73291 7.59469e-06 8.87612C-0.00211032 9.31781 0.439299 9.60081 0.618374 9.69656C0.829539 9.90873 0.999248 10.1584 1.11878 10.4329C1.31609 10.9872 1.88949 11.8283 3.53777 11.7199C3.53831 11.7389 3.53882 11.7569 3.53909 11.7733L3.54147 11.9182C3.54147 12.0619 3.59854 12.1997 3.70012 12.3013C3.8017 12.4028 3.93948 12.4599 4.08313 12.4599C4.22679 12.4599 4.36457 12.4028 4.46615 12.3013C4.56773 12.1997 4.6248 12.0619 4.6248 11.9182L4.62216 11.7458C4.61951 11.6432 4.61581 11.4945 4.61581 11.1057ZM10.3938 2.91247C10.411 2.84476 10.4279 2.76965 10.4427 2.68501C10.5303 2.08137 10.4539 1.46528 10.2216 0.901302C10.1923 0.827778 10.1472 0.761556 10.0896 0.707279C10.032 0.653002 9.96321 0.611983 9.88807 0.587098C9.69524 0.522033 8.98327 0.394021 7.6217 1.26418C6.4899 0.997841 5.31174 0.997841 4.17995 1.26418C2.82392 0.406766 2.11563 0.523116 1.92467 0.584476C1.84768 0.608353 1.77701 0.649155 1.71783 0.703891C1.65866 0.758627 1.61248 0.82591 1.58269 0.900809C1.3456 1.47562 1.27006 2.10427 1.36422 2.71888C1.37745 2.78818 1.39173 2.85219 1.40654 2.9109C0.95781 3.50859 0.718794 4.23763 0.726551 4.98499C0.725088 5.15174 0.73277 5.31844 0.74956 5.48434C0.930477 7.97738 2.55548 8.72588 3.68773 8.98296C3.66419 9.05067 3.64277 9.12313 3.62372 9.19984C3.58978 9.33921 3.6125 9.48635 3.68688 9.609C3.76127 9.73164 3.88126 9.81979 4.02053 9.8541C4.15981 9.88841 4.30701 9.86609 4.42986 9.79203C4.5527 9.71797 4.64117 9.59822 4.67585 9.45903C4.71031 9.27855 4.79865 9.11276 4.92923 8.98349C5.00818 8.91437 5.06534 8.82379 5.09376 8.72278C5.12218 8.62177 5.12063 8.51468 5.08931 8.41453C5.05798 8.31438 4.99822 8.22549 4.9173 8.15869C4.83639 8.09188 4.7378 8.05002 4.63353 8.03821C2.76256 7.82451 1.95032 7.06227 1.82813 5.3849C1.8146 5.25204 1.8085 5.11853 1.80988 4.985C1.80119 4.45235 1.97717 3.93312 2.30791 3.51552C2.34114 3.47198 2.37654 3.43014 2.41397 3.39015C2.48028 3.31594 2.52487 3.2249 2.54284 3.12701C2.5608 3.02912 2.55145 2.92818 2.5158 2.83526C2.47926 2.7375 2.45112 2.63681 2.43169 2.53427C2.38757 2.2427 2.40204 1.94526 2.47427 1.65935C2.94505 1.79231 3.38813 2.00875 3.7824 2.29834C3.8476 2.34177 3.92137 2.37067 3.99872 2.38308C4.07607 2.3955 4.15519 2.39113 4.2307 2.37029C5.32547 2.07318 6.47966 2.07337 7.57433 2.37083C7.65025 2.39165 7.72979 2.39576 7.80745 2.38289C7.88512 2.37001 7.95907 2.34045 8.02421 2.29625C8.41664 2.00545 8.85786 1.78708 9.32707 1.65143C9.39898 1.93047 9.41507 2.22097 9.37442 2.50624C9.3548 2.61866 9.32414 2.72887 9.2829 2.83527C9.24726 2.92819 9.2379 3.02913 9.25587 3.12702C9.27383 3.22491 9.31842 3.31595 9.38473 3.39016C9.42652 3.43723 9.46831 3.48801 9.50587 3.53562C9.83427 3.94616 10.0073 4.45942 9.99439 4.98499C9.99537 5.12561 9.98857 5.26618 9.97402 5.40605C9.85474 7.0612 9.03934 7.82398 7.15963 8.03821C7.05534 8.05009 6.95674 8.09201 6.87583 8.15889C6.79493 8.22576 6.73519 8.3147 6.70389 8.4149C6.6726 8.51509 6.67109 8.62222 6.69955 8.72326C6.72801 8.82429 6.78521 8.91488 6.8642 8.98401C6.99888 9.11673 7.08741 9.28917 7.11679 9.47596C7.15339 9.62096 7.17021 9.77025 7.16678 9.91976V11.184C7.16147 11.5347 7.16147 11.7976 7.16147 11.9182C7.16147 12.0619 7.21854 12.1996 7.32012 12.3012C7.42171 12.4028 7.55948 12.4599 7.70314 12.4599C7.8468 12.4599 7.98457 12.4028 8.08616 12.3012C8.18774 12.1996 8.24481 12.0619 8.24481 11.9182C8.24481 11.8008 8.24481 11.5432 8.2501 11.1925V9.91976C8.25446 9.68025 8.22625 9.44127 8.16626 9.20935C8.1491 9.13322 8.12809 9.05802 8.10331 8.98402C8.92732 8.84713 9.67602 8.42228 10.2161 7.7851C10.7563 7.14792 11.0528 6.33975 11.0529 5.50444C11.0707 5.33188 11.079 5.15847 11.0777 4.98499C11.0897 4.23683 10.8487 3.50653 10.3938 2.91248L10.3938 2.91247Z" fill="white"/>
</svg>
