<svg width="71" height="71" viewBox="0 0 71 71" fill="none" xmlns="http://www.w3.org/2000/svg">
<path d="M5.91669 17.7358C5.91669 16.1098 7.2348 14.7917 8.86079 14.7917H32.5559C34.1818 14.7917 35.5 16.1098 35.5 17.7358C35.5 19.3617 34.1818 20.6799 32.5559 20.6799H8.86079C7.2348 20.6799 5.91669 19.3617 5.91669 17.7358Z" fill="white"/>
<path d="M5.91669 35.4994C5.91669 33.8732 7.2348 32.5553 8.86079 32.5553H62.1392C63.7651 32.5553 65.0834 33.8732 65.0834 35.4994C65.0834 37.1253 63.7651 38.4432 62.1392 38.4432H8.86079C7.2348 38.4432 5.91669 37.1253 5.91669 35.4994Z" fill="white"/>
<path d="M8.86079 50.3201C7.2348 50.3201 5.91669 51.6383 5.91669 53.2642C5.91669 54.8901 7.2348 56.2083 8.86079 56.2083H44.3892C46.0151 56.2083 47.3334 54.8901 47.3334 53.2642C47.3334 51.6383 46.0151 50.3201 44.3892 50.3201H8.86079Z" fill="white"/>
</svg>
