<svg xmlns="http://www.w3.org/2000/svg" data-name="Layer 1" viewBox="0 0 641.42 533.22" width="42" height="42" >
<path fill="#fff" d="M44.55 0c22.82,0 40.3,4.06 52.45,12.18 12.14,8.12 18.21,20.74 18.21,37.85 0,10.68 -2.45,19.35 -7.35,26 -4.9,6.65 -11.96,11.88 -21.18,15.69 3.07,3.8 6.29,8.16 9.65,13.06l0.63 0.92c-9.29,0.34 -19.29,0.83 -30,1.47 -2.88,0.17 -5.76,0.36 -8.61,0.58 -2.41,-3.42 -4.83,-6.57 -7.23,-9.44l-16.9 0 0 11.76c-11.27,1.33 -22.31,3 -33.12,5l-1.11 -111.13c7.46,-1.46 15.18,-2.49 23.15,-3.07 7.97,-0.59 15.11,-0.88 21.4,-0.88zm1.97 29.19c-2.49,0 -4.72,0.07 -6.69,0.22 -1.97,0.15 -3.84,0.29 -5.59,0.44l0 41.26 9.65 0c12.87,0 22.09,-1.61 27.65,-4.83 5.56,-3.22 8.34,-8.7 8.34,-16.46 0,-7.46 -2.82,-12.77 -8.45,-15.91 -5.63,-3.14 -13.93,-4.72 -24.9,-4.72zm152.51 82.63l0 -6.48c-1.31,-0.29 -3.29,-0.59 -5.92,-0.88 -2.63,-0.29 -5.05,-0.44 -7.24,-0.44 -3.08,0 -5.96,0.18 -8.67,0.55 -2.71,0.37 -5.08,1.06 -7.13,2.09 -0.41,0.2 -0.8,0.42 -1.17,0.65 -11.49,-1.21 -23.41,-1.91 -35.73,-2.11 0.53,-1.42 1.17,-2.76 1.9,-4.03 2.71,-4.68 6.33,-8.41 10.86,-11.19 4.54,-2.78 9.73,-4.79 15.58,-6.03 5.85,-1.25 11.92,-1.87 18.21,-1.87 4.24,0 8.01,0.18 11.3,0.55 3.29,0.36 5.96,0.84 8.01,1.43l0 -3.07c0,-5.56 -1.68,-10.02 -5.05,-13.39 -3.36,-3.37 -9.22,-5.05 -17.56,-5.05 -5.56,0 -11.04,0.4 -16.46,1.21 -5.41,0.8 -10.09,1.94 -14.04,3.4l-4.17 -26.34c1.9,-0.59 4.28,-1.21 7.13,-1.86 2.85,-0.66 5.96,-1.25 9.33,-1.76 3.36,-0.51 6.91,-0.95 10.64,-1.32 3.73,-0.36 7.5,-0.55 11.3,-0.55 9.66,0 17.7,1.1 24.14,3.29 6.44,2.19 11.59,5.34 15.47,9.44 3.88,4.1 6.62,9.07 8.23,14.92 1.61,5.85 2.41,12.36 2.41,19.53l0 37.35c-3.3,-1.07 -6.66,-2.08 -10.07,-3.03 -6.91,-1.91 -14.01,-3.58 -21.31,-5.02zm130.57 -44.44c-2.92,-0.73 -6.36,-1.5 -10.31,-2.31 -3.95,-0.8 -8.19,-1.21 -12.73,-1.21 -2.05,0 -4.5,0.18 -7.35,0.55 -2.85,0.36 -5.01,0.77 -6.47,1.21l0 87.7c-9.94,-8.16 -20.84,-15.26 -32.7,-21.27l0 -87.49c5.85,-2.05 12.77,-3.99 20.74,-5.82 7.97,-1.83 16.86,-2.74 26.66,-2.74 1.76,0 3.87,0.11 6.36,0.33 2.49,0.22 4.97,0.51 7.46,0.88 2.49,0.36 4.97,0.8 7.46,1.32 2.49,0.51 4.61,1.13 6.36,1.86l-5.49 26.99zm121.57 82.51c-5.56,1.61 -12.72,3.11 -21.5,4.5 -8.78,1.39 -17.99,2.08 -27.65,2.08 -9.8,0 -17.96,-1.31 -24.47,-3.95 -6.51,-2.63 -11.67,-6.33 -15.47,-11.08 -3.8,-4.75 -6.51,-10.42 -8.12,-17 -1.61,-6.59 -2.41,-13.82 -2.41,-21.72l0 -64.3 32.7 0 0 60.35c0,10.53 1.39,18.14 4.17,22.82 2.78,4.68 7.97,7.02 15.58,7.02 2.34,0 4.83,-0.11 7.46,-0.33 2.63,-0.22 4.97,-0.47 7.02,-0.77l0 -89.09 32.7 0 0 111.48zm94.14 -57.27c0,-10.53 -1.35,-17.99 -4.06,-22.38 -2.71,-4.39 -7.35,-6.58 -13.93,-6.58 -2.05,0 -4.17,0.11 -6.36,0.33 -2.19,0.22 -4.31,0.48 -6.36,0.77l0 89.09 -32.7 0 0 -111.48c2.78,-0.73 6.03,-1.5 9.77,-2.3 3.73,-0.81 7.68,-1.54 11.85,-2.2 4.17,-0.66 8.45,-1.17 12.84,-1.54 4.39,-0.36 8.7,-0.55 12.95,-0.55 8.34,0 15.11,1.06 20.3,3.18 5.19,2.12 9.47,4.64 12.84,7.57 4.68,-3.36 10.06,-6 16.13,-7.9 6.07,-1.9 11.67,-2.85 16.79,-2.85 9.21,0 16.79,1.28 22.71,3.84 5.92,2.56 10.64,6.18 14.15,10.86 3.51,4.68 5.92,10.24 7.24,16.68 1.32,6.44 1.97,13.6 1.97,21.5l0 21.02 -32.7 0 0 -17.07c0,-10.53 -1.36,-17.99 -4.06,-22.38 -2.7,-4.39 -7.35,-6.58 -13.93,-6.58 -1.75,0 -4.21,0.44 -7.35,1.31 -3.14,0.88 -5.74,1.97 -7.79,3.29 1.02,3.36 1.68,6.91 1.97,10.64 0.29,3.73 0.44,7.72 0.44,11.96l0 18.83 -32.7 0 0 -17.07z"/>
<path fill="#fff" d="M92.43 450.67c4.29,0.39 9.27,0.68 14.92,0.88 5.66,0.2 12.39,0.29 20.2,0.29 45.66,0 79.52,-11.51 101.57,-34.54 22.05,-23.03 33.07,-54.83 33.07,-95.42 0,-42.54 -10.54,-74.73 -31.61,-96.59 -21.07,-21.86 -54.44,-32.78 -100.1,-32.78 -6.24,0 -12.68,0.1 -19.32,0.29 -6.63,0.2 -12.88,0.68 -18.73,1.46l0 256.4zm264.01 -128.79c0,35.12 -5.46,65.76 -16.39,91.91 -10.93,26.15 -26.44,47.81 -46.54,64.98 -20.1,17.17 -44.59,30.05 -73.47,38.64 -28.88,8.59 -61.27,12.88 -97.17,12.88 -16.39,0 -35.51,-0.68 -57.37,-2.05 -21.86,-1.37 -43.32,-4.2 -64.39,-8.49l0 -395.14c21.07,-3.9 43.02,-6.54 65.86,-7.9 22.83,-1.37 42.44,-2.05 58.83,-2.05 34.73,0 66.24,3.9 94.54,11.71 28.3,7.81 52.59,20.1 72.88,36.88 20.29,16.78 35.9,38.25 46.83,64.39 10.93,26.15 16.39,57.56 16.39,94.25zm284.5 66.74c0,19.9 -2.25,38.64 -6.73,56.2 -4.49,17.56 -12.29,32.88 -23.42,45.95 -11.12,13.07 -26.15,23.42 -45.07,31.02 -18.93,7.61 -42.83,11.42 -71.71,11.42 -26.54,0 -49.37,-3.22 -68.49,-9.66 -19.12,-6.44 -34.93,-13.95 -47.42,-22.54l30.44 -70.83c11.32,6.63 23.42,12.49 36.3,17.56 12.88,5.07 26.93,7.61 42.15,7.61 22.25,0 38.25,-5.46 48,-16.39 9.75,-10.93 14.64,-29.27 14.64,-55.02l0 -264.6 91.32 0 0 269.28z"/>
</svg>